<?xml version="1.0" encoding="UTF-8" standalone="no"?>
<!-- Generator: Adobe Illustrator 16.0.0, SVG Export Plug-In . SVG Version: 6.00 Build 0)  -->

<svg
   version="1.1"
   id="Layer_1"
   x="0px"
   y="0px"
   width="200"
   height="100"
   viewBox="0 0 199.99999 99.999997"
   enable-background="new 0 0 195.574 96.744"
   xml:space="preserve"
   sodipodi:docname="abyx-colour-active.svg"
   inkscape:version="1.1 (c68e22c387, 2021-05-23)"
   xmlns:inkscape="http://www.inkscape.org/namespaces/inkscape"
   xmlns:sodipodi="http://sodipodi.sourceforge.net/DTD/sodipodi-0.dtd"
   xmlns="http://www.w3.org/2000/svg"
   xmlns:svg="http://www.w3.org/2000/svg"><defs
   id="defs229"><linearGradient
     id="linearGradient132598"
     inkscape:swatch="solid"><stop
       style="stop-color:#ffffff;stop-opacity:1;"
       offset="0"
       id="stop132596" /></linearGradient></defs><sodipodi:namedview
   id="namedview227"
   pagecolor="#505050"
   bordercolor="#ffffff"
   borderopacity="1"
   inkscape:pageshadow="0"
   inkscape:pageopacity="0"
   inkscape:pagecheckerboard="1"
   showgrid="true"
   inkscape:zoom="5.6568543"
   inkscape:cx="95.72458"
   inkscape:cy="50.116193"
   inkscape:window-width="1920"
   inkscape:window-height="1017"
   inkscape:window-x="1912"
   inkscape:window-y="410"
   inkscape:window-maximized="1"
   inkscape:current-layer="Layer_1"
   showguides="false"
   width="195.57401px"
   objecttolerance="20"><inkscape:grid
     type="xygrid"
     id="grid261634"
     snapvisiblegridlinesonly="true"
     color="#ffff00"
     opacity="0.25098039"
     empcolor="#ff0000"
     empopacity="0.25098039"
     empspacing="10" /></sodipodi:namedview>
<g
   id="g156">
	<g
   id="g127">
		<g
   id="A_1_">
			<path
   fill="#141414"
   d="m 24.991212,0.49999948 c 13.544195,0 24.508789,10.97234252 24.508789,24.50000052 0,13.528692 -10.964594,24.499999 -24.508789,24.499999 C 11.465629,49.499999 0.49999949,38.528692 0.49999949,25 0.49999949,11.472342 11.465629,0.49999948 24.991212,0.49999948 Z"
   id="path120"
   style="fill:none;fill-opacity:1;stroke:#ffffff;stroke-width:0.999999;stroke-opacity:1" />
		</g>
		<g
   enable-background="new    "
   id="g125">
			<path
   fill="#39B54A"
   d="M 34.243281,41.014308 31.309174,32.915736 H 18.499656 l -2.793633,8.098572 H 9.9170239 L 22.028399,8.9825204 H 27.92513 L 40.084033,41.014308 Z M 24.959337,13.794316 h -0.136248 c -0.113014,0.895145 -0.251376,1.666639 -0.475289,2.297573 l -4.369474,12.342843 h 9.81521 L 25.396601,16.091889 c -0.139417,-0.386804 -0.298903,-1.151957 -0.437264,-2.297573 z"
   id="path123"
   style="fill:#ffffff;fill-opacity:1;stroke:none;stroke-width:0.999999;stroke-opacity:1" />
		</g>
	</g>
	<g
   id="g136">
		<g
   id="B_1_">
			<path
   fill="#141414"
   d="m 74.99328,0.49999799 c 13.541094,0 24.506722,10.97532001 24.506722,24.50258501 0,13.527263 -10.965628,24.497415 -24.506722,24.497415 -13.528687,0 -24.493282,-10.971185 -24.493282,-24.498449 0,-13.527265 10.964595,-24.50155101 24.493282,-24.50155101 z"
   id="path129"
   style="fill:none;fill-opacity:1;stroke:#ffffff;stroke-width:0.999999;stroke-opacity:1" />
		</g>
		<g
   enable-background="new    "
   id="g134">
			<path
   fill="#c1272d"
   d="m 85.770656,31.684409 c 0,2.777114 -1.040363,5.05439 -3.089401,6.74729 -2.066993,1.725654 -4.721239,2.575275 -7.991251,2.575275 H 64.225121 V 8.985624 h 10.109998 c 3.060884,0 5.485931,0.6826544 7.252963,1.990899 1.778651,1.337833 2.664806,3.119498 2.664806,5.377753 0,1.739395 -0.532327,3.271666 -1.584308,4.594708 -1.070991,1.352627 -2.031679,2.259608 -3.757517,2.809111 v 0.09616 c 2.285628,0.289548 3.637111,1.14838 4.933075,2.518973 1.26639,1.402294 1.926518,3.152256 1.926518,5.311176 z M 78.621201,17.3772 c 0,-1.273372 -0.479517,-2.265653 -1.406864,-2.953589 -0.95798,-0.685825 -2.349001,-1.02821 -4.202643,-1.02821 h -3.461185 v 8.858657 h 3.413656 c 1.788157,0 3.190796,-0.422697 4.177292,-1.269147 0.978047,-0.846448 1.479744,-2.02894 1.479744,-3.607711 z m 1.514598,14.162436 c 0,-1.531218 -0.536553,-2.731676 -1.645567,-3.602428 -1.110072,-0.860188 -2.740853,-1.274429 -4.936705,-1.274429 h -4.003018 v 9.947097 h 4.477256 c 1.902224,0 3.392531,-0.462853 4.475141,-1.382216 1.102677,-0.903515 1.632893,-2.140957 1.632893,-3.688024 z"
   id="path132"
   style="fill:#ffffff;fill-opacity:1;stroke:none;stroke-width:0.999999;stroke-opacity:1"
   sodipodi:nodetypes="scsccscsccccsscsccscsscsccscs" />
		</g>
	</g>
	<g
   id="g145">
		<g
   id="Y_1_">
			<path
   fill="#141414"
   d="m 174.99122,0.4999975 c 13.54417,0 24.50879,10.9787655 24.50879,24.5041375 0,13.526407 -10.96462,24.495864 -24.50879,24.495864 -13.52561,0 -24.49122,-10.969457 -24.49122,-24.495864 0,-13.525372 10.96561,-24.5041375 24.49122,-24.5041375 z"
   id="path138"
   style="fill:none;fill-opacity:1;stroke:#ffffff;stroke-width:1;stroke-opacity:1" />
		</g>
		<g
   enable-background="new    "
   id="g143">
			<path
   fill="#FCEE21"
   d="m 177.52271,29.395605 v 11.609549 h -5.2778 V 29.525575 L 161.84458,8.9882866 h 6.04248 l 6.4375,13.3625504 c 0.22496,0.434288 0.35805,0.827368 0.4626,1.184519 0.10457,0.355039 0.18591,0.644564 0.2704,0.871746 h 0.0475 c 0.15949,-0.678377 0.39397,-1.347244 0.73406,-2.010827 l 6.67831,-13.4079884 h 5.61789 z"
   id="path141"
   style="fill:#ffffff;fill-opacity:1;stroke:none;stroke-width:1;stroke-opacity:1" />
		</g>
	</g>
	<g
   id="g154">
		<g
   id="X_1_">
			<path
   fill="#141414"
   d="m 124.98552,0.4999985 c 13.54908,0 24.51448,10.9750895 24.51448,24.5020685 0,13.526978 -10.96437,24.49793 -24.51448,24.49793 -13.51908,0 -24.48552,-10.970952 -24.48552,-24.49793 0,-13.526979 10.96644,-24.5020685 24.48552,-24.5020685 z"
   id="path147"
   style="fill:none;fill-opacity:1;stroke:#ffffff;stroke-width:1;stroke-opacity:1" />
		</g>
		<g
   enable-background="new    "
   id="g152">
			<path
   fill="#0071BC"
   d="m 133.14796,41.004872 -6.90172,-11.643846 c -0.1422,-0.304331 -0.26072,-0.562168 -0.3329,-0.806267 -0.0528,-0.272631 -0.13036,-0.530466 -0.2284,-0.806266 h -0.0991 c -0.12498,0.290592 -0.20471,0.552655 -0.28765,0.818946 -0.083,0.234589 -0.20147,0.488198 -0.36202,0.79253 l -7.02774,11.643848 h -6.59682 L 122.23304,24.953502 112.25755,8.9856129 h 6.66468 l 5.81898,10.5184551 c 0.55916,0.935186 0.92761,1.732998 1.1291,2.394497 h 0.0787 c 0.32861,-0.837968 0.57855,-1.385343 0.70785,-1.648462 0.11743,-0.25044 2.37993,-4.012314 6.75519,-11.2644901 h 6.11307 l -10.19096,15.8717301 10.32241,16.147529 z"
   id="path150"
   style="fill:#ffffff;fill-opacity:1;stroke:none;stroke-width:1;stroke-opacity:1" />
		</g>
	</g>
</g>
<g
   id="g194">
	<g
   id="g165">
		<g
   id="A_2_">
			<path
   fill="#FFFFFF"
   d="m 24.991213,50.500002 c 13.544194,0 24.508788,10.972343 24.508788,24.500001 0,13.528693 -10.964594,24.500001 -24.508788,24.500001 -13.525585,0 -24.49121299,-10.971308 -24.49121299,-24.500001 0,-13.527658 10.96562799,-24.500001 24.49121299,-24.500001 z"
   id="path158"
   style="mix-blend-mode:normal;fill:#ffffff;fill-opacity:1;stroke:#ffffff;stroke-width:1;stroke-miterlimit:1.8;stroke-dasharray:none;stroke-opacity:1" />
		</g>
		<g
   enable-background="new    "
   id="g163">
			<path
   fill="#C64AB5"
   d="M 34.2434,91.01452 31.309256,82.915843 H 18.499571 L 15.705903,91.01452 H 9.9168294 L 22.028361,58.982316 h 5.896806 L 40.084228,91.01452 Z M 24.959336,63.794175 h -0.13625 c -0.113015,0.895156 -0.251378,1.66666 -0.475294,2.297602 l -4.36953,12.343003 h 9.815336 L 25.396606,66.091777 C 25.257187,65.704968 25.0977,64.939805 24.959336,63.794175 Z"
   id="path161"
   style="fill:#39b54a;fill-opacity:1;stroke:none;stroke-width:1;stroke-opacity:1" />
		</g>
	</g>
	<g
   id="g174">
		<g
   id="B_2_">
			<path
   fill="#FFFFFF"
   d="m 74.993278,50.5 c 13.541093,0 24.50672,10.975322 24.50672,24.502587 0,13.527265 -10.965627,24.497414 -24.50672,24.497414 -13.528685,0 -24.493279,-10.971184 -24.493279,-24.498448 C 50.499999,61.474287 61.464593,50.5 74.993278,50.5 Z"
   id="path167"
   style="fill:#ffffff;fill-opacity:1;stroke:#ffffff;stroke-width:1;stroke-opacity:1" />
		</g>
		<g
   enable-background="new    "
   id="g172">
			<path
   fill="#3ED8D2"
   d="m 85.770535,81.683284 c 0,2.777085 -1.040351,5.054336 -3.089367,6.747216 -2.066971,1.725639 -4.721186,2.575249 -7.991162,2.575249 H 64.225237 V 58.985798 h 10.109887 c 3.06085,0 5.485871,0.682647 7.252883,1.990878 1.778631,1.337819 2.664777,3.119464 2.664777,5.377695 0,1.739376 -0.532322,3.271633 -1.584291,4.594658 -1.07098,1.352614 -2.452482,2.271968 -4.178302,2.821467 v 0.09616 c 2.285603,0.289543 4.057896,1.135983 5.353846,2.506561 1.266377,1.401223 1.926498,3.151167 1.926498,5.310064 z M 78.621159,67.376228 c 0,-1.273359 -0.479512,-2.265628 -1.40685,-2.953558 -0.957968,-0.685818 -2.348975,-1.028198 -4.202595,-1.028198 h -3.461148 v 8.858561 h 3.413619 c 1.788136,0 3.190761,-0.422692 4.177246,-1.269132 0.978036,-0.845383 1.479728,-2.02892 1.479728,-3.607673 z m 1.514582,14.163341 c 0,-1.5312 -0.536547,-2.731645 -1.64555,-3.60239 -1.11006,-0.860177 -2.740823,-1.274415 -4.93665,-1.274415 h -4.002975 v 9.946992 h 4.477206 c 1.902205,0 3.392494,-0.462847 4.475093,-1.382202 1.102666,-0.90456 1.632876,-2.14199 1.632876,-3.687985 z"
   id="path170"
   style="fill:#c1272d;fill-opacity:1;stroke:none;stroke-width:1;stroke-opacity:1" />
		</g>
	</g>
	<g
   id="g183">
		<g
   id="Y_2_">
			<path
   fill="#FFFFFF"
   d="m 174.99121,50.499998 c 13.54419,0 24.50879,10.978764 24.50879,24.504136 0,13.526408 -10.9646,24.495862 -24.50879,24.495862 -13.52559,0 -24.49121,-10.969454 -24.49121,-24.495862 0,-13.525372 10.96562,-24.504136 24.49121,-24.504136 z"
   id="path176"
   style="fill:#ffffff;stroke:#ffffff;stroke-width:1;stroke-opacity:1;fill-opacity:1" />
		</g>
		<g
   enable-background="new    "
   id="g181">
			<path
   fill="#0311DE"
   d="m 177.52271,79.396768 v 11.609548 h -5.2778 V 79.526738 L 161.84457,58.989451 h 6.04249 l 6.4375,13.362551 c 0.22497,0.434288 0.35805,0.827366 0.46261,1.184518 0.10457,0.355038 0.18589,0.644564 0.27039,0.871746 h 0.0475 c 0.15948,-0.678377 0.39396,-1.347244 0.73405,-2.010828 l 6.67832,-13.407987 h 5.61789 z"
   id="path179"
   style="fill:#fcee21;fill-opacity:1;stroke:none;stroke-width:1;stroke-opacity:1" />
		</g>
	</g>
	<g
   id="g192">
		<g
   id="X_2_">
			<path
   fill="#FFFFFF"
   d="m 124.98555,50.499998 c 13.54907,0 24.51446,10.975092 24.51446,24.502072 0,13.526982 -10.96437,24.497934 -24.51446,24.497934 -13.51911,0 -24.48555,-10.970952 -24.48555,-24.497934 0,-13.52698 10.96644,-24.502072 24.48555,-24.502072 z"
   id="path185"
   style="fill:#ffffff;fill-opacity:1;stroke:#ffffff;stroke-width:0.999994;stroke-opacity:1" />
		</g>
		<g
   enable-background="new    "
   id="g190">
			<path
   fill="#FF8E43"
   d="M 132.50517,91.004879 125.73934,79.36103 c -0.13942,-0.304331 -0.2556,-0.562168 -0.32636,-0.806268 -0.0517,-0.27263 -0.1278,-0.530466 -0.22391,-0.806267 h -0.0971 c -0.12251,0.290594 -0.20068,0.552657 -0.282,0.818948 -0.0814,0.23459 -0.19751,0.488199 -0.35488,0.792528 l -6.8894,11.643851 h -6.46693 l 10.70642,-16.050315 -9.78014,-15.967894 h 6.53347 l 5.70439,10.518457 c 0.54815,0.935186 0.90937,1.733 1.10687,2.394497 h 0.0771 c 0.32214,-0.837968 0.56718,-1.385341 0.69393,-1.648462 0.11512,-0.250438 2.33308,-4.012314 6.62219,-11.264492 h 5.9927 l -9.99032,15.871735 10.11918,16.147531 z"
   id="path188"
   style="fill:#0071bc;fill-opacity:1;stroke:none;stroke-width:0.999994;stroke-opacity:1" />
		</g>
	</g>
</g>
<g
   id="g196">
</g>
<g
   id="g198">
</g>
<g
   id="g200">
</g>
<g
   id="g202">
</g>
<g
   id="g204">
</g>
<g
   id="g206">
</g>
<g
   id="g208">
</g>
<g
   id="g210">
</g>
<g
   id="g212">
</g>
<g
   id="g214">
</g>
<g
   id="g216">
</g>
<g
   id="g218">
</g>
<g
   id="g220">
</g>
<g
   id="g222">
</g>
<g
   id="g224">
</g>
</svg>
