<?xml version="1.0" encoding="UTF-8" standalone="no"?>
<!-- Generator: Adobe Illustrator 16.0.0, SVG Export Plug-In . SVG Version: 6.00 Build 0)  -->

<svg
   version="1.1"
   id="Layer_1"
   x="0px"
   y="0px"
   width="171.154px"
   height="62.864px"
   viewBox="0 0 171.154 62.864"
   enable-background="new 0 0 171.154 62.864"
   xml:space="preserve"
   sodipodi:docname="bumper.svg"
   inkscape:version="1.1 (c68e22c387, 2021-05-23)"
   xmlns:inkscape="http://www.inkscape.org/namespaces/inkscape"
   xmlns:sodipodi="http://sodipodi.sourceforge.net/DTD/sodipodi-0.dtd"
   xmlns="http://www.w3.org/2000/svg"
   xmlns:svg="http://www.w3.org/2000/svg"><defs
   id="defs236028" /><sodipodi:namedview
   id="namedview236026"
   pagecolor="#505050"
   bordercolor="#ffffff"
   borderopacity="1"
   inkscape:pageshadow="0"
   inkscape:pageopacity="0"
   inkscape:pagecheckerboard="1"
   showgrid="false"
   inkscape:zoom="2.637646"
   inkscape:cx="88.146779"
   inkscape:cy="48.338556"
   inkscape:window-width="1920"
   inkscape:window-height="1017"
   inkscape:window-x="1912"
   inkscape:window-y="410"
   inkscape:window-maximized="1"
   inkscape:current-layer="Layer_1" />
<g
   id="LB_Pressed">
	<path
   id="path235982"
   style="fill:#ffffff;fill-opacity:1;stroke:#ffffff;stroke-width:0.999995;stroke-opacity:1"
   d="M 121.47402,0.52679147 C 82.278143,0.59080602 37.387164,23.288678 21.095175,32.122536 c -0.269449,0.161249 -0.547871,0.308579 -0.81437,0.457046 -0.08162,0.05309 -0.154392,0.108217 -0.245848,0.161311 -0.17996,0.08161 -0.34537,0.188518 -0.524347,0.297656 -0.0826,0.06391 -0.181943,0.115007 -0.286182,0.165151 -0.139642,0.09931 -0.291253,0.198489 -0.443678,0.291896 -0.0826,0.04523 -0.181005,0.110751 -0.284261,0.178594 -0.128825,0.09734 -0.267452,0.184431 -0.411027,0.26309 -0.08064,0.06686 -0.167699,0.135715 -0.265055,0.203558 -0.131774,0.08554 -0.25419,0.16767 -0.389898,0.26501 -0.08949,0.06686 -0.161231,0.134164 -0.247769,0.186275 -0.134725,0.08554 -0.252686,0.185845 -0.370693,0.286135 -0.08654,0.05998 -0.170264,0.104099 -0.240085,0.168992 -0.117023,0.101272 -0.245187,0.203635 -0.355326,0.282293 -0.06589,0.05801 -0.145112,0.123303 -0.2228,0.188196 -0.114074,0.103239 -0.219942,0.180038 -0.341882,0.282293 -0.0708,0.06293 -0.132128,0.124332 -0.190147,0.186275 -0.116042,0.07964 -0.234877,0.185661 -0.3342,0.293816 -0.05507,0.05998 -0.120465,0.107463 -0.184386,0.151709 -0.118007,0.110121 -0.208694,0.223361 -0.318834,0.320701 -0.05605,0.04129 -0.113059,0.09567 -0.165179,0.151708 -0.09342,0.117004 -0.204806,0.217416 -0.316912,0.322621 -0.04425,0.05113 -0.08555,0.102502 -0.122924,0.15363 -0.111123,0.105205 -0.224382,0.217938 -0.320755,0.341824 -0.03049,0.04425 -0.06728,0.08661 -0.105638,0.119063 -0.11604,0.11897 -0.220725,0.249878 -0.30923,0.362948 -0.03147,0.02851 -0.06171,0.06634 -0.09219,0.1037 -0.11604,0.141584 -0.216745,0.260893 -0.31115,0.395595 -0.02163,0.02851 -0.04461,0.05598 -0.06723,0.0845 -0.117023,0.135685 -0.211736,0.281556 -0.314992,0.435923 -0.0118,0.01573 -0.02179,0.02853 -0.03458,0.04033 -0.12194,0.14945 -0.224197,0.32216 -0.328437,0.464727 l 0.0058,-0.002 c -4.8820921,7.308605 -2.1716162,15.07092 -10.6559979,22.575835 -0.015734,0.01278 -0.04184,0.02281 -0.059541,0.03265 C 34.033694,44.760449 98.94245,24.865773 118.20118,28.581385 c 8.97147,1.726545 19.57446,11.881029 30.56385,24.346371 0.23111,0.263505 0.45981,0.526655 0.71451,0.79311 0.23011,0.291035 0.45787,0.554525 0.71257,0.819996 l 16.11262,-30.024887 3.43227,-6.421696 c -0.33828,-0.06489 -0.67762,-0.129356 -1.02181,-0.222762 -0.32943,-0.09046 -0.66055,-0.187289 -0.99491,-0.266931 l -0.004,0.0058 C 155.51158,14.076632 141.13449,2.2934185 133.41684,1.2738129 129.52197,0.75559129 125.52877,0.52016927 121.47402,0.52679147 Z"
   sodipodi:nodetypes="scccccccccccccccccscccccccccccccccccccccccccccs" />
	<g
   id="g235990">
		<path
   fill="#E5E5E5"
   d="M166.167,23.969c0.156,0.063,0.306,0.123,0.464,0.187C166.472,24.092,166.323,24.03,166.167,23.969z"
   id="path235984" />
		
		<path
   fill="#FFFFFF"
   d="M165.693,23.72c0.172,0.088,0.313,0.173,0.473,0.249C166.005,23.892,165.865,23.808,165.693,23.72z"
   id="path235988" />
	</g>
	
</g>
<g
   id="g235995">
</g>
<g
   id="g235997">
</g>
<g
   id="g235999">
</g>
<g
   id="g236001">
</g>
<g
   id="g236003">
</g>
<g
   id="g236005">
</g>
<g
   id="g236007">
</g>
<g
   id="g236009">
</g>
<g
   id="g236011">
</g>
<g
   id="g236013">
</g>
<g
   id="g236015">
</g>
<g
   id="g236017">
</g>
<g
   id="g236019">
</g>
<g
   id="g236021">
</g>
<g
   id="g236023">
</g>
</svg>
