<?xml version="1.0" encoding="UTF-8" standalone="no"?>
<!-- Generator: Adobe Illustrator 16.0.0, SVG Export Plug-In . SVG Version: 6.00 Build 0)  -->

<svg
   version="1.1"
   id="Layer_1"
   x="0px"
   y="0px"
   width="67.409px"
   height="33.206px"
   viewBox="0 0 67.409 33.206"
   enable-background="new 0 0 67.409 33.206"
   xml:space="preserve"
   sodipodi:docname="start-select.svg"
   inkscape:version="1.1 (c68e22c387, 2021-05-23)"
   xmlns:inkscape="http://www.inkscape.org/namespaces/inkscape"
   xmlns:sodipodi="http://sodipodi.sourceforge.net/DTD/sodipodi-0.dtd"
   xmlns="http://www.w3.org/2000/svg"
   xmlns:svg="http://www.w3.org/2000/svg"><defs
   id="defs252083" /><sodipodi:namedview
   id="namedview252081"
   pagecolor="#505050"
   bordercolor="#ffffff"
   borderopacity="1"
   inkscape:pageshadow="0"
   inkscape:pageopacity="0"
   inkscape:pagecheckerboard="1"
   showgrid="false"
   inkscape:zoom="9.7390561"
   inkscape:cx="12.475542"
   inkscape:cy="8.4710468"
   inkscape:window-width="1920"
   inkscape:window-height="1017"
   inkscape:window-x="1912"
   inkscape:window-y="410"
   inkscape:window-maximized="1"
   inkscape:current-layer="Layer_1" />
<g
   id="Menu_Pressed">
	<path
   fill="#F5F5F5"
   stroke="#FFFFFF"
   stroke-miterlimit="10"
   d="M66.909,16.603c0,8.903-7.229,16.103-16.102,16.103   c-8.901,0-16.102-7.2-16.102-16.103c0-8.896,7.2-16.103,16.102-16.103C59.681,0.5,66.909,7.707,66.909,16.603z"
   id="path252030"
   style="fill:#ffffff;fill-opacity:1" />
	<g
   id="g252038">
		<rect
   x="43.612"
   y="11.978"
   fill="#929493"
   width="14.361"
   height="1.552"
   id="rect252032"
   style="fill:#000000;fill-opacity:1" />
		<rect
   x="43.612"
   y="15.896"
   fill="#929493"
   width="14.361"
   height="1.552"
   id="rect252034"
   style="fill:#000000;fill-opacity:1" />
		<rect
   x="43.612"
   y="19.706"
   fill="#929493"
   width="14.361"
   height="1.532"
   id="rect252036"
   style="fill:#000000;fill-opacity:1" />
	</g>
</g>
<g
   id="Switcher_PRessed">
	<path
   fill="#F5F5F5"
   stroke="#FFFFFF"
   stroke-miterlimit="10"
   d="M32.706,16.603c0,8.903-7.201,16.103-16.103,16.103   c-8.872,0-16.103-7.2-16.103-16.103C0.5,7.707,7.731,0.5,16.603,0.5C25.505,0.5,32.706,7.707,32.706,16.603z"
   id="path252041"
   style="fill:#ffffff;fill-opacity:1" />
	<g
   id="g252047">
		<polygon
   fill="#929493"
   points="14.087,16.502 11.056,16.502 11.056,12.718 16.528,12.718 16.528,14.039 18.328,14.039     18.328,10.979 9.437,10.979 9.437,18.369 14.087,18.369   "
   id="polygon252043"
   style="fill:#000000;fill-opacity:1" />
		<path
   fill="#929493"
   d="M14.837,14.663v7.584h8.96v-7.584H14.837z M21.998,20.447h-5.47v-3.945h5.47V20.447z"
   id="path252045"
   style="fill:#000000;fill-opacity:1" />
	</g>
</g>
<g
   id="g252050">
</g>
<g
   id="g252052">
</g>
<g
   id="g252054">
</g>
<g
   id="g252056">
</g>
<g
   id="g252058">
</g>
<g
   id="g252060">
</g>
<g
   id="g252062">
</g>
<g
   id="g252064">
</g>
<g
   id="g252066">
</g>
<g
   id="g252068">
</g>
<g
   id="g252070">
</g>
<g
   id="g252072">
</g>
<g
   id="g252074">
</g>
<g
   id="g252076">
</g>
<g
   id="g252078">
</g>
</svg>
