<?xml version="1.0" encoding="UTF-8" standalone="no"?>
<!-- Generator: Adobe Illustrator 16.0.0, SVG Export Plug-In . SVG Version: 6.00 Build 0)  -->

<svg
   version="1.1"
   id="Layer_1"
   x="0px"
   y="0px"
   width="88.934px"
   height="121.795px"
   viewBox="0 0 88.934 121.795"
   enable-background="new 0 0 88.934 121.795"
   xml:space="preserve"
   sodipodi:docname="trigger.svg"
   inkscape:version="1.1 (c68e22c387, 2021-05-23)"
   xmlns:inkscape="http://www.inkscape.org/namespaces/inkscape"
   xmlns:sodipodi="http://sodipodi.sourceforge.net/DTD/sodipodi-0.dtd"
   xmlns="http://www.w3.org/2000/svg"
   xmlns:svg="http://www.w3.org/2000/svg"><defs
   id="defs254785" /><sodipodi:namedview
   id="namedview254783"
   pagecolor="#505050"
   bordercolor="#ffffff"
   borderopacity="1"
   inkscape:pageshadow="0"
   inkscape:pageopacity="0"
   inkscape:pagecheckerboard="1"
   showgrid="false"
   inkscape:zoom="6.6423089"
   inkscape:cx="49.606245"
   inkscape:cy="54.122746"
   inkscape:window-width="1920"
   inkscape:window-height="1017"
   inkscape:window-x="1912"
   inkscape:window-y="410"
   inkscape:window-maximized="1"
   inkscape:current-layer="Layer_1" />
<g
   id="LT_Pressed">
	<path
   fill="#E5E5E5"
   d="M74.753,56.076v-0.668C74.768,55.821,74.753,56.076,74.753,56.076z"
   id="path254745" />
	<path
   id="path254747"
   d="M 68.154193,0.74055655 C 60.764715,0.87130586 55.603369,1.9220246 50.848227,5.2389721 50.447087,5.5166195 50.047985,5.8134262 49.651785,6.1286202 42.976654,11.361434 12.454581,5.6416257 0.53202197,121.06883 l 49.79131403,-6.7621 c 0,0 28.270569,-2.97392 38.077756,-5.23561 -2.866276,-51.75307 0,-91.983039 0,-91.983039 V 15.876152 C 88.278576,12.169905 87.057015,1.2661166 76.353685,0.86792481 73.328089,0.75701407 70.617352,0.69697344 68.154193,0.74055655 Z"
   style="fill:#ffffff;fill-opacity:1;stroke:#ffffff;stroke-width:0.999995;stroke-opacity:1" />
	
</g>
<g
   id="g254752">
</g>
<g
   id="g254754">
</g>
<g
   id="g254756">
</g>
<g
   id="g254758">
</g>
<g
   id="g254760">
</g>
<g
   id="g254762">
</g>
<g
   id="g254764">
</g>
<g
   id="g254766">
</g>
<g
   id="g254768">
</g>
<g
   id="g254770">
</g>
<g
   id="g254772">
</g>
<g
   id="g254774">
</g>
<g
   id="g254776">
</g>
<g
   id="g254778">
</g>
<g
   id="g254780">
</g>
</svg>
